<?xml version="1.0" encoding="UTF-8"?>
<svg id="Layer_1" xmlns="http://www.w3.org/2000/svg" version="1.1" viewBox="0 0 168 87.1">
  <!-- Generator: Adobe Illustrator 30.2.1, SVG Export Plug-In . SVG Version: 2.1.1 Build 1)  -->
  <defs>
    <style>
      .st0 {
        fill: #fff;
      }
    </style>
  </defs>
  <path class="st0" d="M23.4,16.9c-.9-1.5-2-2.4-3-3.1v-.4c4.3-3.4,6.3-8.2,8.2-13.4h.4l19,46.1c1.5,3.7,4.4,7.2,9.5,7.2v.6h-26.9v-.6c3.2,0,5.8-.9,5.8-3.6s-.5-1.8-.8-2.4l-3.8-9.6-8.4-20.9Z"/>
  <path class="st0" d="M67.2,1.2c3.3,0,6,2.7,6,6s-2.7,6-6,6-6-2.7-6-6,2.7-6,6-6M57.2,53.9v-.6c3.3,0,4.7-1.6,4.7-5.3v-15c0-2.4-4.1-5-5.3-5.7v-.6c6.6-.8,14.6-5.6,14.6-5.6h.5v26.9c0,3.7,1.3,5.2,4.7,5.2v.6h-19.1Z"/>
  <path class="st0" d="M93.8,52c2.1,0,3.5-1.2,4.3-2.4h.4c-1.4,2.9-5.1,5.3-9.3,5.3s-10.4-3.1-10.4-10v-19.6h-3v-.5l12.4-12.5h.5v10h8.9l-1.1,3h-7.8v20c0,2.9,1.9,6.6,5.1,6.6"/>
  <path class="st0" d="M129.5,31.1c0,3.3-1.9,5.4-5,5.4s-4.9-2.8-4.9-5.8.3-2.8.3-5-2.1-4.1-4.3-4.1c-5.5,0-7.4,6.9-7.4,12.5,0,8.7,5,13.9,12.2,13.9s5.4-1.6,6.8-3c1-1,1.3-1.7,1.6-1.7s.4.2.4.5c0,3.6-5.7,11.1-14,11.1s-16.5-7-16.5-15.9,7.6-17.9,17.6-17.9,13.1,4.1,13.1,10"/>
  <path class="st0" d="M163.8,28.8v19.3c0,3.7.9,5.2,4.2,5.2v.6h-18.2v-.6c3.3,0,4.2-1.5,4.2-5.2v-16.8c0-3.8-1.9-6.4-4.9-6.4s-3.6.9-5.5,2.6v20.5c0,3.7.9,5.2,4.2,5.2v.6h-18.2v-.6c3.3,0,4.2-1.5,4.2-5.2V12.5c0-2.4-3.6-4.6-4.8-5.3v-.6c6.6-.8,14.1-6,14.1-6h.5v26.2c2.5-1.9,5.8-5.6,11.9-5.6s8.3,3.2,8.3,7.6"/>
  <path class="st0" d="M16.5,30.7h-.4l-6.6,15.5c-1.5,3.7-4.4,7.2-9.5,7.2v.6h26.9v-.6c-3.2,0-18.6-4.8-10.4-22.7"/>
  <path class="st0" d="M42.3,76.1h4.3v6.1c0,3.1-1.5,4.9-4.5,4.9s-4.5-1.8-4.5-4.9v-10.1c0-3.1,1.5-4.9,4.5-4.9s4.5,1.8,4.5,4.9v1.9h-2.9v-2.1c0-1.4-.6-1.9-1.6-1.9s-1.6.5-1.6,1.9v10.5c0,1.4.6,1.9,1.6,1.9s1.6-.5,1.6-1.9v-3.6h-1.4v-2.8Z"/>
  <path class="st0" d="M62.3,70.2v5.9h1.2c1.1,0,1.8-.5,1.8-2v-1.9c0-1.4-.5-2-1.5-2h-1.5ZM65.6,86.8c-.2-.5-.3-.8-.3-2.4v-3c0-1.8-.6-2.5-2-2.5h-1.1v7.9h-3v-19.4h4.6c3.2,0,4.5,1.5,4.5,4.5v1.5c0,2-.6,3.3-2,3.9,1.5.6,2,2.1,2,4.1v3c0,.9,0,1.6.3,2.4h-3.1Z"/>
  <path class="st0" d="M84,82.4c0,1.4.6,1.9,1.6,1.9s1.6-.5,1.6-1.9v-10.5c0-1.4-.6-1.9-1.6-1.9s-1.6.5-1.6,1.9v10.5ZM80.9,72.1c0-3.1,1.6-4.9,4.6-4.9s4.6,1.8,4.6,4.9v10.1c0,3.1-1.6,4.9-4.6,4.9s-4.6-1.8-4.6-4.9v-10.1Z"/>
  <path class="st0" d="M105.8,67.5v14.9c0,1.4.6,1.9,1.6,1.9s1.6-.5,1.6-1.9v-14.9h2.9v14.7c0,3.1-1.5,4.9-4.5,4.9s-4.5-1.8-4.5-4.9v-14.7h3Z"/>
  <path class="st0" d="M127.7,70.2v6.6h1.4c1,0,1.5-.4,1.5-1.8v-2.9c0-1.4-.5-1.8-1.5-1.8h-1.4ZM133.7,72.3v2.5c0,3.1-1.5,4.8-4.5,4.8h-1.4v7.3h-3v-19.4h4.5c3,0,4.5,1.7,4.5,4.8"/>
</svg>