<?xml version="1.0" encoding="UTF-8"?>
<svg id="Layer_2" xmlns="http://www.w3.org/2000/svg" version="1.1" viewBox="0 0 716.7 218.2">
  <!-- Generator: Adobe Illustrator 30.2.1, SVG Export Plug-In . SVG Version: 2.1.1 Build 1)  -->
  <defs>
    <style>
      .st0 {
        fill: #fff;
      }

      .st1 {
        fill: #96c223;
      }
    </style>
  </defs>
  <polygon class="st0" points="109.3 0 109.3 8.8 707.9 8.8 707.9 209.3 52.1 209.3 52.1 218.2 716.7 218.2 716.7 0 109.3 0"/>
  <path class="st0" d="M173.2,64.4h-18.2v13.3h17.6v7.5h-17.6v24.1h-8v-52.4h26.3v7.5h-.1Z"/>
  <path class="st0" d="M223.9,64.4h-20.9v13.3h20.3v7.5h-20.3v16.5h20.9v7.5h-28.9v-52.4h28.9v7.6Z"/>
  <path class="st0" d="M246.8,109.3v-56l38.1,39.9v-36.3h8v55.7l-38.1-39.9v36.6h-8,0Z"/>
  <path class="st0" d="M355.9,69.2c-5.8-5.3-11.2-5.8-14.2-5.8-11.4,0-19.1,8.4-19.1,20s8,19.7,19.2,19.7,11.2-3.2,14.2-6.1v9.5c-5.3,3.1-10.8,3.9-14.4,3.9-9.5,0-15.5-4.3-18.6-7.2-6.1-5.7-8.4-12.4-8.4-19.8s4-16.4,8.4-20.5c5.4-5.1,11.7-6.8,18.9-6.8s9.4.9,14,3.8v9.3Z"/>
  <path class="st0" d="M387.4,77.7h22.5v-20.8h8v52.4h-8v-24.1h-22.5v24.1h-8v-52.4h8v20.8Z"/>
  <path class="st0" d="M451.1,56.9v31.6c0,2.8.1,6.3,1.7,9s5.1,5.4,9.7,5.4,8.2-2.8,9.7-5.4c1.6-2.8,1.7-6.2,1.7-9v-31.6h8v33.7c0,4.2-.9,9.2-4.9,13.6-2.8,3-7.4,6.1-14.5,6.1s-11.8-3.1-14.5-6.1c-4-4.4-4.9-9.4-4.9-13.6v-33.7h8,0Z"/>
  <path class="st0" d="M516.4,56.9c6.4,0,10.5.8,13.8,3.1,5.7,3.9,6.2,10.1,6.2,12.3,0,7.5-4.6,13.1-11.6,14.6l16.4,22.4h-9.7l-15-21.5h-1.4v21.5h-8v-52.4h9.3ZM515.1,81h2.5c2.2,0,11.2-.2,11.2-8.6s-7-8.1-10.9-8.1h-2.8v16.7Z"/>
  <path class="st0" d="M599.4,69.2c-5.8-5.3-11.2-5.8-14.2-5.8-11.4,0-19.1,8.4-19.1,20s8,19.7,19.2,19.7,11.2-3.2,14.2-6.1v9.5c-5.3,3.1-10.8,3.9-14.4,3.9-9.5,0-15.5-4.3-18.6-7.2-6.1-5.7-8.4-12.4-8.4-19.8s4-16.4,8.4-20.5c5.4-5.1,11.7-6.8,18.9-6.8s9.4.9,14,3.8v9.3h0Z"/>
  <path class="st0" d="M630.9,77.7h22.5v-20.8h8v52.4h-8v-24.1h-22.5v24.1h-8v-52.4h8v20.8Z"/>
  <polygon class="st0" points="96.7 45.9 96.7 .4 96.5 .1 0 62.3 0 108.2 96.7 45.9"/>
  <polygon class="st1" points="4.1 194.6 39.8 217.6 39.8 171.7 4.1 194.6"/>
  <path class="st1" d="M52.5,113.5C25,118.3,0,130.8,0,130.8v45.9l96.7-62.3s-16.7-5.8-44.2-.9Z"/>
  <path class="st0" d="M96.7,114.4l-.2-45.8L.1,130.7s25-12.4,52.5-17.3c27.4-4.8,44.1,1,44.1,1Z"/>
  <path class="st0" d="M149.7,144.3v21.8h-3.3v-21.8h3.3Z"/>
  <path class="st0" d="M198.4,166.1v-23.3l15.8,16.6v-15.1h3.3v23.1l-15.8-16.6v15.2h-3.3Z"/>
  <path class="st0" d="M275.8,149.1c-.2-.5-.5-.9-1-1.4-.7-.6-1.4-.8-2.4-.8-2,0-3.1,1.2-3.1,2.6s.2,1.8,2.4,2.6l2.2.9c4,1.6,5.1,3.9,5.1,6.4,0,4.2-2.9,7-7,7s-4-.9-5.1-2.2c-1.2-1.3-1.7-2.7-1.8-4.2l3.3-.7c0,1.1.4,2.1.9,2.8.6.8,1.5,1.3,2.8,1.3,2,0,3.6-1.5,3.6-3.7s-1.7-3.1-3.1-3.7l-2.1-.9c-1.8-.8-4.4-2.3-4.4-5.5s2.3-5.8,6.4-5.8,3.7.9,4.4,1.5c.6.5,1.2,1.3,1.7,2.2l-2.8,1.6h0Z"/>
  <path class="st0" d="M330.1,144.3v13.1c0,1.2,0,2.6.7,3.8.7,1.1,2.1,2.3,4.1,2.3s3.4-1.1,4.1-2.3c.7-1.1.7-2.6.7-3.8v-13.1h3.3v14c0,1.7-.4,3.8-2,5.7-1.1,1.2-3.1,2.5-6,2.5s-4.9-1.3-6-2.5c-1.7-1.8-2-3.9-2-5.7v-14h3.1,0Z"/>
  <path class="st0" d="M395.6,144.3c2.6,0,4.3.3,5.8,1.3,2.4,1.6,2.6,4.2,2.6,5.1,0,3.1-1.9,5.4-4.8,6.1l6.8,9.3h-4l-6.2-8.9h-.6v8.9h-3.5v-21.8h3.9ZM395,154.3h1c.9,0,4.6-.1,4.6-3.6s-2.9-3.4-4.5-3.4h-1.1v7Z"/>
  <path class="st0" d="M465.5,160.8h-9.3l-2.4,5.3h-3.6l10.9-23.1,10.3,23.1h-3.6l-2.3-5.3ZM464.1,157.7l-3.2-7.4-3.4,7.4h6.6Z"/>
  <path class="st0" d="M517.6,166.1v-23.3l15.8,16.6v-15.1h3.3v23.1l-15.8-16.6v15.2h-3.3Z"/>
  <path class="st0" d="M601.7,149.4c-2.4-2.2-4.7-2.4-5.9-2.4-4.7,0-7.9,3.5-7.9,8.3s3.3,8.2,8,8.2,4.6-1.3,5.9-2.5v4c-2.2,1.3-4.5,1.6-6,1.6-4,0-6.4-1.8-7.7-3-2.5-2.4-3.5-5.2-3.5-8.2s1.7-6.8,3.5-8.5c2.3-2.1,4.9-2.8,7.9-2.8s3.9.4,5.8,1.6v3.7h0Z"/>
  <path class="st0" d="M661.4,147.4h-8.7v5.5h8.4v3.1h-8.4v6.9h8.7v3.1h-12v-21.8h12v3.2Z"/>
</svg>