<?xml version="1.0" encoding="UTF-8"?>
<svg id="Layer_1" xmlns="http://www.w3.org/2000/svg" version="1.1" viewBox="0 0 385.5 173.1">
  <!-- Generator: Adobe Illustrator 30.2.1, SVG Export Plug-In . SVG Version: 2.1.1 Build 1)  -->
  <defs>
    <style>
      .st0 {
        fill: #caa84b;
        fill-rule: evenodd;
      }
    </style>
  </defs>
  <path class="st0" d="M171.9,140.2c25.4,1.4,38-11.3,37.9-37.9v-45.9H67.6c-19.1.1-20,28.7,0,29.2h112.4v14.3c.4,7.9-3.4,11.6-11.2,11.2H45.3c-9.1-.2-14.7-5.8-14.9-14.9v-53.4c-.4-7,4.2-12.9,13.8-13.7h261.3c11-1.5,17.6,2.4,19.9,11.4,8.7,32.6,17.4,65.2,26.2,97.8h34c-9.8-36.5-19.5-72.9-29.3-109.4C347.9,10.9,332.6,0,306.2,0H37.8C13.6,0-.2,17.5,0,37.8v60.2c-.2,31.1,18.2,37.7,40.3,40.3,43.9.6,87.7,1.3,131.6,1.9h0ZM264.6,46.1l12.9,26.3,27.4-.6-19.6,15.6,14,25.9-25-16.6-18.7,16.6,4.1-25.9-25.6-15.6,27.6.6,2.9-26.3h0Z"/>
  <path class="st0" d="M34.8,169.6c0,1.2-.6,2.1-1.7,2.7-1.2.6-2.9.9-5.1.9h-13.8c-2.3,0-4-.3-5.1-.9-1.2-.6-1.7-1.5-1.7-2.7v-6.1c0-1.3.6-2.2,1.7-2.7,1.1-.6,2.9-.9,5.4-.9h20.1v3.6h-18.4v6h10v-4.4h8.7v4.4h0Z"/>
  <path class="st0" d="M46.7,165.2h9v-1.7h-9v1.7h0ZM38,173.1v-13.3h19.8c2.3,0,3.9.3,5,.7,1.1.4,1.6,1.1,1.6,2v1.7c0,.6-.3,1.1-.7,1.4-.5.3-1.4.6-2.6.8,1.3.2,2.2.4,2.6.7.5.3.7.8.7,1.5v4.5h-8.7v-4.9h-9.1v4.9h-8.8Z"/>
  <path class="st0" d="M94.2,169.6c0,1.2-.5,2.1-1.7,2.7-1.2.6-2.9.9-5.1.9h-13c-2.3,0-4-.3-5.1-.9-1.2-.6-1.7-1.5-1.7-2.7v-6.1c0-1.2.6-2.1,1.7-2.7,1.1-.6,2.8-.9,5.1-.9h13c2.4,0,4,.3,5.2.9,1.1.6,1.6,1.5,1.6,2.7v6.1h0ZM76.3,169.5h9.1v-6h-9.1v6h0Z"/>
  <path class="st0" d="M123.9,169.6c0,1.2-.5,2.1-1.7,2.7-1.2.6-2.9.9-5.1.9h-13c-2.3,0-4-.3-5.1-.9-1.2-.6-1.7-1.5-1.7-2.7v-6.1c0-1.2.6-2.1,1.7-2.7,1.1-.6,2.8-.9,5.1-.9h13c2.4,0,4,.3,5.2.9,1.1.6,1.6,1.5,1.6,2.7v6.1h0ZM106.1,169.5h9.1v-6h-9.1v6h0Z"/>
  <path class="st0" d="M135.4,173.1l-10.5-13.3h9.2l5.2,7.1c.2.3.4.5.6.8.2.3.3.6.5,1,.2-.4.4-.7.5-1,.2-.3.4-.5.5-.8l5.2-7.1h9.1l-10.6,13.3h-9.8Z"/>
  <polygon class="st0" points="157.6 173.1 157.6 159.9 181.1 159.9 181.1 163.5 166.4 163.5 166.4 165 181.1 165 181.1 168 166.4 168 166.4 169.5 181 169.5 181 173.1 157.6 173.1 157.6 173.1"/>
  <path class="st0" d="M207.6,165.1h9.6v-1.6h-9.6v1.6h0ZM198.8,162.6c0-.9.5-1.5,1.7-2,1.1-.5,2.6-.7,4.6-.7h14.6c1.9,0,3.5.3,4.6.7,1.1.5,1.7,1.2,1.7,2v10.5h-8.8v-5.4h-9.6v5.4h-8.8v-10.5h0Z"/>
  <path class="st0" d="M238.1,165.2h9v-1.7h-9v1.7h0ZM229.4,173.1v-13.3h19.8c2.3,0,4,.3,5.1.7,1,.4,1.6,1.1,1.6,2v1.7c0,.6-.2,1.1-.7,1.4-.5.3-1.4.6-2.6.8,1.2.2,2.1.4,2.6.7.5.3.7.8.7,1.5v4.5h-8.7v-4.9h-9.1v4.9h-8.7Z"/>
  <path class="st0" d="M275.5,168.8c.2-.4.3-.8.4-1.2.1-.3.3-.7.4-.9l3.4-6.8h12.2v13.3h-8.4v-6.6c0-.4,0-.9.2-1.4,0-.4.2-.9.4-1.4h-.3l-4.7,9.3h-6.9l-4.8-9.3h-.2c.2.5.3.9.4,1.4.1.5.2.9.2,1.4v6.6h-8.4v-13.3h12.2l3.4,6.8c.2.2.3.5.4.9.1.3.3.7.4,1.2h0Z"/>
  <path class="st0" d="M304.1,165.1h9.6v-1.6h-9.6v1.6h0ZM295.3,162.6c0-.9.6-1.5,1.7-2,1.1-.5,2.6-.7,4.6-.7h14.6c1.9,0,3.5.3,4.6.7,1.1.5,1.7,1.2,1.7,2v10.5h-8.8v-5.4h-9.6v5.4h-8.8v-10.5h0Z"/>
  <path class="st0" d="M334.6,169.5h10.1v-6h-10.1v6h0ZM325.8,173.1v-13.3h21c2.2,0,3.9.4,5.1.9,1.2.6,1.8,1.5,1.8,2.6v6c0,1.2-.6,2.2-1.8,2.8-1.2.6-3,.9-5.4.9h-20.8Z"/>
  <path class="st0" d="M365.7,165.1h9.6v-1.6h-9.6v1.6h0ZM356.9,162.6c0-.9.5-1.5,1.7-2,1.1-.5,2.6-.7,4.6-.7h14.6c1.9,0,3.5.3,4.6.7,1.1.5,1.7,1.2,1.7,2v10.5h-8.8v-5.4h-9.6v5.4h-8.8v-10.5h0Z"/>
</svg>