<?xml version="1.0" encoding="UTF-8"?>
<svg id="Layer_2" xmlns="http://www.w3.org/2000/svg" version="1.1" viewBox="0 0 283.5 317.3">
  <!-- Generator: Adobe Illustrator 30.2.1, SVG Export Plug-In . SVG Version: 2.1.1 Build 1)  -->
  <defs>
    <style>
      .st0 {
        fill: #fff;
      }
    </style>
  </defs>
  <path class="st0" d="M65.2,236.2h-32.1V32h32.1v87.5h36.5V32h32.7v204.2h-32.7v-87.5h-36.5v87.5Z"/>
  <path class="st0" d="M205.8,148.7h14.6v40.6c0,14.6-6.4,19.8-16.6,19.8s-16.6-5.2-16.6-19.8v-110.3c0-14.6,6.4-20.1,16.6-20.1s16.6,5.5,16.6,20.1v14.9h30.3v-12.9c0-32.7-16.3-51.3-47.8-51.3s-47.8,18.7-47.8,51.3v106.2c0,32.7,16.3,51.3,47.8,51.3s47.8-18.7,47.8-51.3v-67.7h-44.9v29.2Z"/>
  <g>
    <path class="st0" d="M40.3,256.5c-4.6,0-7.2,2.6-7.2,7.3v14.8c0,4.7,2.5,7.3,7.2,7.3s7.2-2.6,7.2-7.3v-3.9h-4.7v4.2c0,1.8-.7,2.6-2.3,2.6s-2.3-.8-2.3-2.6v-15.4c0-1.8.8-2.7,2.3-2.7s2.3.9,2.3,2.7v3.2h4.7v-2.9c0-4.7-2.5-7.3-7.2-7.3Z"/>
    <path class="st0" d="M59.5,256.5c-4.6,0-7.3,2.7-7.3,7.3v14.8c0,4.6,2.7,7.3,7.3,7.3s7.3-2.7,7.3-7.3v-14.8c0-4.6-2.7-7.3-7.3-7.3ZM57.2,263.6c0-1.8.8-2.7,2.3-2.7s2.3.9,2.3,2.7v15.4c0,1.8-.8,2.7-2.3,2.7s-2.3-.9-2.3-2.7v-15.4Z"/>
    <polygon class="st0" points="82.8 273 78.2 256.9 72 256.9 72 285.6 76.5 285.6 76.5 265.8 82.2 285.6 87.3 285.6 87.3 256.9 82.8 256.9 82.8 273"/>
    <path class="st0" d="M101.2,269.6c-2.1-1.8-4-3.5-4-6.1s.7-2.7,2.2-2.7,2.2.8,2.2,2.7v1.3h4.7v-1c0-4.7-2.5-7.3-7.1-7.3s-7.1,2.6-7.1,7.3,2.8,6.9,5.2,9c2.1,1.8,4,3.5,4,6.1s-.7,2.6-2.3,2.6-2.3-.8-2.3-2.6v-2.2h-4.7v1.9c0,4.7,2.5,7.3,7.2,7.3s7.2-2.6,7.2-7.3-2.8-6.9-5.2-9Z"/>
    <polygon class="st0" points="110 261.2 114.9 261.2 114.9 285.6 119.9 285.6 119.9 261.2 124.9 261.2 124.9 256.9 110 256.9 110 261.2"/>
    <path class="st0" d="M143.6,282v-4.4c0-3.2-.9-5.1-2.9-6.1,1.9-1,2.9-2.9,2.9-5.8v-2.2c0-4.6-2.3-6.7-7.1-6.7h-7.3v28.7h5v-11.6h1.5c2.1,0,2.9,1,2.9,3.5v4.5c0,2.3.2,2.8.4,3.5h0c0,.1,5.1.1,5.1.1v-.2c-.6-1-.6-2.1-.6-3.4ZM134.1,261.2h2.1c1.6,0,2.3.8,2.3,2.8v2.8c0,2-.8,2.9-2.7,2.9h-1.7v-8.5Z"/>
    <path class="st0" d="M158.3,279c0,1.8-.7,2.6-2.3,2.6s-2.3-.8-2.3-2.6v-22.1h-5v21.8c0,4.7,2.5,7.3,7.2,7.3s7.2-2.6,7.2-7.3v-21.8h-4.7v22.1Z"/>
    <path class="st0" d="M175.2,256.5c-4.6,0-7.2,2.6-7.2,7.3v14.8c0,4.7,2.5,7.3,7.2,7.3s7.2-2.6,7.2-7.3v-3.9h-4.7v4.2c0,1.8-.7,2.6-2.3,2.6s-2.3-.8-2.3-2.6v-15.4c0-1.8.8-2.7,2.3-2.7s2.3.9,2.3,2.7v3.2h4.7v-2.9c0-4.7-2.5-7.3-7.2-7.3Z"/>
    <polygon class="st0" points="186.1 261.2 191 261.2 191 285.6 196 285.6 196 261.2 201 261.2 201 256.9 186.1 256.9 186.1 261.2"/>
    <rect class="st0" x="205.2" y="256.9" width="5" height="28.7"/>
    <path class="st0" d="M223,256.5c-4.6,0-7.3,2.7-7.3,7.3v14.8c0,4.6,2.7,7.3,7.3,7.3s7.3-2.7,7.3-7.3v-14.8c0-4.6-2.7-7.3-7.3-7.3ZM220.6,263.6c0-1.8.8-2.7,2.3-2.7s2.3.9,2.3,2.7v15.4c0,1.8-.8,2.7-2.3,2.7s-2.3-.9-2.3-2.7v-15.4Z"/>
    <polygon class="st0" points="246.2 256.9 246.2 273 241.7 257 241.6 256.9 235.5 256.9 235.5 285.6 240 285.6 240 265.8 245.6 285.5 245.6 285.6 250.7 285.6 250.7 256.9 246.2 256.9"/>
  </g>
</svg>