<?xml version="1.0" encoding="UTF-8"?>
<svg id="Layer_1" xmlns="http://www.w3.org/2000/svg" xmlns:xlink="http://www.w3.org/1999/xlink" version="1.1" viewBox="0 0 2381.1 841.9">
  <!-- Generator: Adobe Illustrator 30.3.0, SVG Export Plug-In . SVG Version: 2.1.3 Build 182)  -->
  <defs>
    <style>
      .st0 {
        fill: url(#linear-gradient2);
      }

      .st1 {
        fill: url(#linear-gradient1);
      }

      .st2 {
        fill: url(#linear-gradient9);
      }

      .st3 {
        fill: url(#linear-gradient3);
      }

      .st4 {
        fill: url(#linear-gradient6);
      }

      .st5 {
        fill: url(#linear-gradient8);
      }

      .st6 {
        fill: url(#linear-gradient7);
      }

      .st7 {
        fill: url(#linear-gradient5);
      }

      .st8 {
        fill: url(#linear-gradient4);
      }

      .st9 {
        fill: url(#linear-gradient13);
      }

      .st10 {
        fill: url(#linear-gradient12);
      }

      .st11 {
        fill: url(#linear-gradient15);
      }

      .st12 {
        fill: url(#linear-gradient16);
      }

      .st13 {
        fill: url(#linear-gradient11);
      }

      .st14 {
        fill: url(#linear-gradient10);
      }

      .st15 {
        fill: url(#linear-gradient14);
      }

      .st16 {
        fill: url(#linear-gradient);
      }

      .st17 {
        fill: #fff;
      }

      .st18 {
        fill: #b3d7d0;
      }
    </style>
    <linearGradient id="linear-gradient" x1="354.7" y1="307.5" x2="354.7" y2="264.2" gradientUnits="userSpaceOnUse">
      <stop offset="0" stop-color="#b3d7d0"/>
      <stop offset=".3" stop-color="#a1c8bf"/>
      <stop offset=".6" stop-color="#95bfb4"/>
      <stop offset="1" stop-color="#92bcb1"/>
    </linearGradient>
    <linearGradient id="linear-gradient1" x1="-11102.6" y1="-10142.9" x2="-11102.6" y2="-10186.2" gradientTransform="translate(-10747.9 -9954) rotate(-180)" xlink:href="#linear-gradient"/>
    <linearGradient id="linear-gradient2" x1="-10976.5" y1="718.6" x2="-10976.5" y2="675.3" gradientTransform="translate(-154.9 -10664.2) rotate(-90)" xlink:href="#linear-gradient"/>
    <linearGradient id="linear-gradient3" x1="228.7" y1="-10554" x2="228.7" y2="-10597.3" gradientTransform="translate(-10108.9 83.7) rotate(90)" xlink:href="#linear-gradient"/>
    <linearGradient id="linear-gradient4" x1="-11085.3" y1="669.8" x2="-11085.3" y2="635.1" gradientTransform="translate(-214 -10662) rotate(-90)" gradientUnits="userSpaceOnUse">
      <stop offset="0" stop-color="#b3d7d0"/>
      <stop offset=".3" stop-color="#aed2cb"/>
      <stop offset=".7" stop-color="#9fc7bd"/>
      <stop offset="1" stop-color="#92bcb1"/>
    </linearGradient>
    <linearGradient id="linear-gradient5" x1="337.4" y1="-10513.8" x2="337.4" y2="-10557.1" gradientTransform="translate(-10168 85.8) rotate(90)" xlink:href="#linear-gradient"/>
    <linearGradient id="linear-gradient6" x1="504.4" y1="538.2" x2="504.4" y2="488.9" xlink:href="#linear-gradient"/>
    <linearGradient id="linear-gradient7" x1="-11252.3" y1="-10367.6" x2="-11252.3" y2="-10410.9" gradientTransform="translate(-10747.9 -9954) rotate(-180)" xlink:href="#linear-gradient"/>
    <linearGradient id="linear-gradient8" x1="454.9" y1="581.5" x2="454.9" y2="538.2" xlink:href="#linear-gradient"/>
    <linearGradient id="linear-gradient9" x1="-10753.2" y1="883.7" x2="-10753.2" y2="859.3" gradientTransform="translate(-438.1 -10280.3) rotate(-90)" xlink:href="#linear-gradient"/>
    <linearGradient id="linear-gradient10" x1="327.8" y1="407.2" x2="327.8" y2="691.3" xlink:href="#linear-gradient"/>
    <linearGradient id="linear-gradient11" x1="5.3" y1="-10737.9" x2="5.3" y2="-10781.2" gradientTransform="translate(-10392.2 467.6) rotate(90)" gradientUnits="userSpaceOnUse">
      <stop offset="0" stop-color="#b3d7d0"/>
      <stop offset=".4" stop-color="#afd3cc"/>
      <stop offset=".7" stop-color="#a3cac1"/>
      <stop offset="1" stop-color="#92bcb1"/>
    </linearGradient>
    <linearGradient id="linear-gradient12" x1="-10802.4" y1="876.8" x2="-10802.4" y2="859.3" gradientTransform="translate(-438.1 -10280.3) rotate(-90)" xlink:href="#linear-gradient"/>
    <linearGradient id="linear-gradient13" x1="637.6" y1="-10877.5" x2="637.6" y2="-10926.9" gradientTransform="translate(-10406.4 -115.5) rotate(90)" xlink:href="#linear-gradient"/>
    <linearGradient id="linear-gradient14" x1="54.6" y1="-10737.9" x2="54.6" y2="-10781.2" gradientTransform="translate(-10392.2 467.6) rotate(90)" xlink:href="#linear-gradient"/>
    <linearGradient id="linear-gradient15" x1="-10850.7" y1="933.7" x2="-10850.7" y2="909.2" gradientTransform="translate(-438.1 -10280.3) rotate(-90)" xlink:href="#linear-gradient"/>
    <linearGradient id="linear-gradient16" x1="102.9" y1="-10804.8" x2="102.9" y2="-10831.1" gradientTransform="translate(-10392.2 467.6) rotate(90)" gradientUnits="userSpaceOnUse">
      <stop offset="0" stop-color="#b3d7d0"/>
      <stop offset=".3" stop-color="#add2ca"/>
      <stop offset=".8" stop-color="#9cc4ba"/>
      <stop offset="1" stop-color="#92bcb1"/>
    </linearGradient>
  </defs>
  <g>
    <g>
      <path class="st18" d="M520.5,296.3v32.1h42.6v-32.1h-42.6Z"/>
      <polygon class="st18" points="806.6 296.3 806.6 586.5 389 586.5 389 296.3 488.4 296.3 488.4 328.4 421.1 328.4 421.1 554.4 774.4 554.4 774.4 328.4 587 328.4 587 296.3 806.6 296.3"/>
    </g>
    <path class="st18" d="M94,232.1v306.1h426.5V232.1H94ZM488.4,506.1H126.1v-241.9h362.3v241.9Z"/>
    <g>
      <polygon class="st18" points="595.1 149.7 595.1 489 471 489 471 456.9 563.1 456.9 563.1 181.8 370.7 181.8 370.7 456.9 438.9 456.9 438.9 489 338.7 489 338.7 149.7 595.1 149.7"/>
      <rect class="st18" x="438.9" y="456.9" width="32.1" height="32.1"/>
    </g>
    <rect class="st16" x="338.7" y="264.2" width="32.1" height="43.3"/>
    <rect class="st1" x="338.7" y="188.8" width="32.1" height="43.3"/>
    <rect class="st0" x="520.4" y="296.3" width="43.3" height="32.1"/>
    <rect class="st3" x="445.1" y="296.3" width="43.3" height="32.1"/>
    <rect class="st8" x="421.1" y="407.2" width="34.7" height="32.1"/>
    <rect class="st7" x="345.8" y="407.2" width="43.3" height="32.1"/>
    <rect class="st4" x="488.4" y="488.9" width="32.1" height="49.2"/>
    <rect class="st6" x="488.4" y="413.6" width="32.1" height="43.3"/>
    <rect class="st5" x="438.9" y="538.2" width="32.1" height="43.3"/>
    <rect class="st2" x="421.1" y="456.9" width="24.5" height="32.1"/>
    <path class="st14" d="M184.7,407.2v284.1h286.2v-284.1H184.7ZM438.9,659.2h-222v-220h222v220Z"/>
    <rect class="st13" x="345.8" y="456.9" width="43.3" height="32.1"/>
    <rect class="st10" x="421.1" y="506.1" width="17.5" height="32.1"/>
    <rect class="st9" x="471" y="506.1" width="49.4" height="32.1"/>
    <rect class="st15" x="345.8" y="506.1" width="43.3" height="32.1"/>
    <rect class="st11" x="471" y="554.4" width="24.5" height="32.1"/>
    <rect class="st12" x="412.6" y="554.4" width="26.4" height="32.1"/>
  </g>
  <g>
    <path class="st17" d="M1132,416.8c14.6-14.3,21.8-31.4,21.8-50,0-27.2-14.6-48.6-41.8-57.9,17.1-8.9,29.3-26.8,29.3-46.8s-5.4-25.4-14.6-35c-12.9-13.6-33.6-22.5-62.5-22.5h-139.7v233.3h144c31.8,0,49.3-7.5,63.6-21.1ZM975.9,247.1h82.2c11.4,0,18.2,2.5,23.2,7.9,4.3,4.3,7.1,10,7.1,16.8s-2.9,13.9-7.9,18.9c-5.4,5.4-12.9,7.5-22.5,7.5h-82.2v-51.1ZM975.9,395.7v-58.9h90.7c11.1,0,19.3,3.6,25.7,10,5,5.4,8.2,12.1,8.2,19.6s-3.2,15-8.2,20.4c-6.1,5.7-15,8.9-25.7,8.9h-90.7Z"/>
    <polygon class="st17" points="1400.7 393.9 1263.5 393.9 1263.5 204.6 1212.4 204.6 1212.4 437.9 1400.7 437.9 1400.7 393.9"/>
    <path class="st17" d="M1553.2,445c73.9,0,133.3-55,133.3-124.3s-59.3-123.3-133.3-123.3-131.8,55.4-131.8,123.3,57.9,124.3,131.8,124.3ZM1553.2,241.7c44.7,0,79.7,35.7,79.7,79s-35,80.4-79.7,80.4-78.2-36.4-78.2-80.4,34.3-79,78.2-79Z"/>
    <path class="st17" d="M1851.5,445c74,0,133.3-55,133.3-124.3s-59.3-123.3-133.3-123.3-131.8,55.4-131.8,123.3,57.9,124.3,131.8,124.3ZM1851.5,241.7c44.7,0,79.7,35.7,79.7,79s-35,80.4-79.7,80.4-78.2-36.4-78.2-80.4,34.3-79,78.2-79Z"/>
    <polygon class="st17" points="2240.2 204.6 2164.1 332.5 2163.4 332.5 2086.9 204.6 2038 204.6 2038 437.9 2087.6 437.9 2087.6 302.5 2089.4 302.5 2154.8 411.4 2169.1 411.4 2234.5 302.5 2236.3 302.5 2236.3 437.9 2287.7 437.9 2287.7 204.6 2240.2 204.6"/>
    <path class="st17" d="M1032.7,605.8c0-1.7-.7-3.2-1.9-4.4-1.5-1.5-3.3-2.3-5.8-2.3h-20.5v13.3h20.5c2.4,0,4.4-.7,5.8-2,1.1-1.2,1.9-2.9,1.9-4.6Z"/>
    <polygon class="st17" points="2004.6 583 2004.2 583 1996.2 601.7 2012.6 601.7 2004.6 583"/>
    <path class="st17" d="M1609.8,613.6c10.1,0,18-8.2,18-18.2s-7.9-17.8-18-17.8-17.7,8.1-17.7,17.8,7.8,18.2,17.7,18.2Z"/>
    <path class="st17" d="M924.5,659.4h1363.2v-135.2H924.5v135.2ZM2201,569.2l12.8,18.3,12.8-18.3h13.6l-20.9,28.7v24.1h-11.6v-24.1l-21-28.7h14.4ZM2149,567.6c9.7,0,19.2,3.8,25.5,9.2l-7.3,7.6c-4.8-4.2-11.6-6.8-17.3-6.8-10.7,0-17.5,8.2-17.5,18s7,18,17.9,18,13.9-3.8,18.5-8.4l7.3,7.5c-6.1,5.7-15.3,10.8-26.8,10.8-17.5,0-29.1-12.5-29.1-28s11.6-27.9,28.7-27.9ZM2051.5,569.2h9.9l26.9,32.7h0v-32.7h11.6v52.7h-10l-26.8-32.6h0v32.6h-11.6v-52.7ZM1999.7,569.2h9.9l24.5,52.7h-12.7l-4.8-11.1h-24.4l-4.8,11.1h-12.2l24.5-52.7ZM1919.6,569.2h49.8v10h-19.1v42.7h-11.5v-42.7h-19.1v-10ZM1871.2,569.2h11.5v42.8h31v9.9h-42.6v-52.7ZM1799.3,569.2h11.6v33.8c0,6.9,5.6,10.7,12.4,10.7s12.5-3.7,12.5-10.7v-33.8h11.6v33.8c0,13.2-10.2,20.6-24.1,20.6s-24-7.4-24-20.6v-33.8ZM1755.7,599.8c-11.5-.7-25.1-2-25.1-15.4s11.9-16.7,21.8-16.7,20.3,4,24.8,7.1l-6.6,8.1c-3.1-2.3-9.8-5.7-18.5-5.7s-9.9,1.9-9.9,6.5,6.9,5,13.8,5.6c9.6.6,24.6,1.8,24.6,16.3s-10.8,18.1-23.7,18.1-22.9-5.4-29-10.4l6.5-7.9c4.4,3.6,12,8.9,22.6,8.9s12-2.6,12-7.5-5.4-6.2-13.3-6.9ZM1660,569.2h9.9l26.9,32.7h0v-32.7h11.6v52.7h-10l-26.8-32.6h0v32.6h-11.6v-52.7ZM1609.8,567.6c16.7,0,30.1,12.5,30.1,27.9s-13.4,28.1-30.1,28.1-29.8-12.4-29.8-28.1,13.1-27.9,29.8-27.9ZM1539.7,567.6c9.7,0,19.2,3.8,25.5,9.2l-7.3,7.6c-4.8-4.2-11.6-6.8-17.3-6.8-10.7,0-17.5,8.2-17.5,18s7,18,17.9,18,13.9-3.8,18.5-8.4l7.3,7.5c-6.1,5.7-15.3,10.8-26.8,10.8-17.5,0-29.1-12.5-29.1-28s11.6-27.9,28.7-27.9ZM1441,567.6c8.3,0,17.4,3.3,25,9.4l-7.7,7.2c-4.6-4.2-11.8-6.6-17.3-6.6-10.1,0-17.1,8.2-17.1,18s6.1,17.9,17.9,17.9,10.1-1.3,13.4-3.6v-8.9h-15.9v-9.5h26.7v23.7c-6.9,5.1-16.5,8.2-24.7,8.2-16.9,0-29.5-12.4-29.5-27.9s12.8-27.9,29.1-27.9ZM1343.2,569.2h9.9l26.9,32.7h0v-32.7h11.6v52.7h-10l-26.8-32.6h0v32.6h-11.6v-52.7ZM1306.9,569.2h11.5v52.7h-11.5v-52.7ZM1233.8,569.2h24.8c9.7,0,16,2.7,20.7,7.5,4.6,4.8,7.1,11.4,7.1,18.8s-2.7,14.6-7.6,19.5c-4.5,4.3-10.3,6.9-20.2,6.9h-24.8v-52.7ZM1173.3,569.2h11.5v42.8h31v9.9h-42.6v-52.7ZM1137,569.2h11.5v52.7h-11.5v-52.7ZM1065.1,569.2h11.6v33.8c0,6.9,5.6,10.7,12.4,10.7s12.5-3.7,12.5-10.7v-33.8h11.6v33.8c0,13.2-10.2,20.6-24.1,20.6s-24-7.4-24-20.6v-33.8ZM992.9,569.2h31.6c6.5,0,11.2,2,14.1,5.1,2.1,2.2,3.3,4.9,3.3,7.9,0,4.5-2.7,8.6-6.6,10.6,6.1,2.1,9.4,6.9,9.4,13.1s-1.6,8.1-4.9,11.3c-3.2,3.1-7.2,4.8-14.4,4.8h-32.5v-52.7Z"/>
    <path class="st17" d="M1274.3,595.6c0-5-1.5-9.2-4.4-12.2-2.7-2.7-5.5-4.2-11.7-4.2h-12.8v32.8h12.8c6.1,0,8.6-1.4,11.3-3.8,3.1-3.1,4.8-7.3,4.8-12.6Z"/>
    <path class="st17" d="M1028.2,588.7c1.1-1.1,1.8-2.7,1.8-4.3s-.6-2.8-1.6-3.8c-1.1-1.2-2.7-1.8-5.2-1.8h-18.6v11.5h18.6c2.2,0,3.9-.5,5.1-1.7Z"/>
  </g>
</svg>