<?xml version="1.0" encoding="UTF-8"?>
<svg id="Layer_1" xmlns="http://www.w3.org/2000/svg" xmlns:xlink="http://www.w3.org/1999/xlink" version="1.1" viewBox="0 0 317.8 104.5">
  <!-- Generator: Adobe Illustrator 30.2.1, SVG Export Plug-In . SVG Version: 2.1.1 Build 1)  -->
  <defs>
    <style>
      .st0 {
        fill: #292929;
      }

      .st1 {
        fill: #fff;
      }

      .st2 {
        fill: #f9b600;
      }
    </style>
  </defs>
  <g>
    <path class="st1" d="M126.4,41.1c-.6.3-1.4.4-2.4.4s-1.8,0-2.5-.3-1.3-.4-1.8-.8c-.5-.4-.8-.9-1.1-1.6-.2-.6-.3-1.4-.3-2.4h-9c0,2.1.4,4,1.3,5.5.8,1.5,2,2.8,3.4,3.8s3,1.7,4.8,2.2,3.5.7,5.4.7,4.9-.4,6.9-1.2,3.5-1.9,4.5-3.4c1.1-1.5,1.6-3.3,1.6-5.4s-.5-3.7-1.4-5.2-2.2-2.7-4-3.8c-1.7-1.1-3.9-2-6.4-2.8-1.2-.4-2.3-.8-3.2-1.2-.9-.4-1.6-.8-2.1-1.3s-.8-1-.8-1.6.2-1,.5-1.5c.3-.4.8-.8,1.5-1.1.7-.3,1.5-.4,2.5-.4s1.8.2,2.5.5c.6.3,1.1.8,1.4,1.3.3.6.5,1.2.5,2h9c0-2.3-.6-4.2-1.7-5.9s-2.7-2.9-4.7-3.8c-2-.9-4.3-1.3-6.8-1.3s-4.9.4-7,1.2-3.7,2-4.9,3.4c-1.2,1.5-1.8,3.2-1.8,5.3s.3,3,1,4.2,1.6,2.3,2.7,3.1c1.1.9,2.4,1.7,3.8,2.3,1.4.7,2.9,1.2,4.4,1.8,1.7.6,2.9,1.1,3.8,1.6.8.5,1.4.9,1.6,1.4.3.5.4,1,.4,1.7s0,.9-.4,1.4c-.2.6-.7.9-1.2,1.2Z"/>
    <polygon class="st1" points="149.8 48.1 158.8 48.1 158.8 20.4 169 20.4 169 13.1 139.5 13.1 139.5 20.4 149.8 20.4 149.8 48.1"/>
    <path class="st1" d="M176.6,48.1l1.8-5.9h11.2l1.8,5.9h9.7l-12.9-35h-8.5l-12.8,35h9.7ZM184,24.1l3.4,10.8h-6.7l3.3-10.8Z"/>
    <polygon class="st1" points="218.1 48.1 218.1 20.4 228.5 20.4 228.5 13.1 199 13.1 199 20.4 209.1 20.4 209.1 48.1 218.1 48.1"/>
    <path class="st1" d="M237.6,46.5c2.3,1.4,5,2.1,8.1,2.1s5.7-.7,8-2.1c2.3-1.4,4.1-3.4,5.5-6,1.3-2.6,2-5.7,2-9.3v-1c0-3.6-.7-6.7-2-9.3s-3.2-4.6-5.5-6-5-2.1-8-2.1-5.7.7-8,2.1c-2.3,1.4-4.2,3.4-5.5,6s-2,5.7-2,9.3v1c0,3.6.7,6.7,2,9.3,1.3,2.5,3.1,4.5,5.4,6ZM239.3,30c0-2.2.2-4.1.7-5.6s1.2-2.6,2.1-3.4c.9-.8,2.1-1.1,3.5-1.1s2.5.4,3.4,1.1c.9.8,1.7,1.9,2.2,3.4s.7,3.3.7,5.6v1.1c0,2.2-.2,4-.7,5.5s-1.2,2.6-2.1,3.4c-.9.8-2.1,1.2-3.4,1.2s-2.6-.4-3.5-1.2-1.6-1.9-2.1-3.4-.7-3.3-.7-5.5v-1.1h0Z"/>
    <polygon class="st1" points="299 13.1 295.8 13.1 291.6 13.1 284.3 36.2 277 13.1 272.8 13.1 269.8 13.1 265.2 13.1 265.2 48.1 274.2 48.1 274.2 41.3 273.5 24.1 281.3 48.1 287.3 48.1 295.2 24.1 294.5 41.3 294.5 48.1 303.5 48.1 303.5 13.1 299 13.1"/>
    <path class="st1" d="M124.8,78.8h5.5v4.8c-.2.2-.5.4-.9.5-.4.2-.9.3-1.4.4-.6,0-1.3.2-2.1.2-1.7,0-3-.4-4-1.1s-1.8-1.8-2.3-3.3-.7-3.3-.7-5.6v-1.6c0-2.3.3-4.2.8-5.6.5-1.5,1.2-2.6,2.2-3.3.9-.7,2-1.1,3.3-1.1s2.2.2,3,.6,1.3.9,1.8,1.7c.4.7.7,1.7.8,2.8h8.7c-.2-2.4-.9-4.5-1.9-6.4-1-1.8-2.6-3.3-4.6-4.3-2.1-1-4.7-1.6-8-1.6s-5.5.7-7.8,2-4.1,3.3-5.4,5.8c-1.3,2.6-1.9,5.7-1.9,9.4v1.6c0,3.7.6,6.8,1.9,9.4s3.1,4.5,5.4,5.8,5.1,2,8.2,2,4.7-.3,6.6-.8,3.4-1.2,4.7-1.9c1.2-.7,2.2-1.5,2.8-2.1v-14.7h-14.5v6.4h-.2Z"/>
    <path class="st1" d="M167.8,75.6c1.1-.9,2-2,2.6-3.3.6-1.4.9-3.1.9-5.2s-.5-4.3-1.6-5.8c-1.1-1.6-2.6-2.8-4.6-3.6s-4.4-1.2-7.1-1.2h-14v35h9v-11.9h4l5.9,11.9h9.7v-.4l-7.1-14c.6-.4,1.4-1,2.3-1.5ZM152.8,63.8h5c1.4,0,2.5.4,3.3,1.1.7.8,1.1,1.8,1.1,3.1s-.2,1.7-.5,2.3c-.3.6-.8,1.1-1.5,1.4s-1.5.5-2.5.5h-4.9v-8.4h0Z"/>
    <path class="st1" d="M198.5,58.1c-2.3-1.4-5-2.1-8-2.1s-5.7.7-8,2.1c-2.3,1.4-4.2,3.4-5.5,6s-2,5.7-2,9.3v1c0,3.6.7,6.7,2,9.3,1.3,2.6,3.2,4.6,5.5,6s5,2.1,8.1,2.1,5.7-.7,8-2.1,4.1-3.4,5.5-6c1.3-2.6,2-5.7,2-9.3v-1c0-3.6-.7-6.7-2-9.3-1.5-2.6-3.3-4.6-5.6-6ZM196.8,74.5c0,2.2-.2,4-.7,5.5s-1.2,2.6-2.1,3.4c-.9.8-2.1,1.2-3.4,1.2s-2.6-.4-3.5-1.2c-.9-.8-1.6-1.9-2.1-3.4s-.7-3.3-.7-5.5v-1.1c0-2.2.2-4.1.7-5.6s1.2-2.6,2.1-3.4c.9-.8,2.1-1.1,3.5-1.1s2.5.4,3.4,1.1c.9.8,1.7,1.9,2.2,3.4s.7,3.3.7,5.6v1.1h0Z"/>
    <path class="st1" d="M228.8,79.1c0,1.3-.2,2.4-.5,3.2-.4.8-.9,1.4-1.6,1.8-.7.4-1.6.6-2.7.6s-2-.2-2.7-.6-1.3-1-1.7-1.8-.6-1.9-.6-3.2v-22.6h-9.1v22.7c0,2.8.6,5.1,1.8,7s2.8,3.4,4.9,4.3c2.1,1,4.5,1.5,7.3,1.5s5.2-.5,7.3-1.5,3.7-2.4,4.8-4.3,1.7-4.2,1.7-7v-22.7h-9v22.6h.1Z"/>
    <path class="st1" d="M264.3,58.1c-2.1-1.1-4.5-1.6-7.3-1.6h-14.2v35h9v-11.4h5.2c2.8,0,5.3-.5,7.3-1.4,2.1-1,3.6-2.3,4.8-4,1.1-1.7,1.7-3.7,1.7-6s-.6-4.4-1.7-6.3c-1.1-1.8-2.8-3.3-4.8-4.3ZM261.1,70.8c-.3.6-.8,1.1-1.5,1.5s-1.6.5-2.6.5h-5.2v-9h5.2c1.1,0,2,.2,2.6.7.7.5,1.2,1.1,1.5,1.8.3.8.5,1.6.5,2.4-.1.8-.1,1.5-.5,2.1Z"/>
  </g>
  <rect class="st2" x="14.3" y="13.1" width="78.9" height="78.9"/>
  <g>
    <rect class="st0" x="54.9" y="40.2" width="7.9" height="13.3"/>
    <rect class="st0" x="73.6" y="40.2" width="7.9" height="13.3"/>
    <path class="st0" d="M25.9,66.9h18.8c4.3,0,7.9-3.5,7.9-7.9h-26.7v7.9h0Z"/>
    <path class="st0" d="M52.6,40.2h-18.7c-4.3,0-7.9,3.5-7.9,7.9h26.7v-7.9h-.1Z"/>
    <rect class="st0" x="26" y="49.7" width="26.7" height="7.9"/>
    <rect class="st0" x="64.3" y="40.2" width="7.9" height="26.7"/>
  </g>
</svg>